# xmcd CD database file
#
# Track frame offsets:
#	150
#	10940
#	23210
#	33555
#	45230
#	59947
#	69112
#	79787
#	99525
#	113457
#	128640
#	144767
#
# Disc length: 2056 seconds
#
# Revision: 1
# Processed by: cddbd v1.5.1PL2 Copyright (c) Steve Scherf et al.
# Submitted via: CDex 1.70beta2
#
DISCID=9008060c
DTITLE=Glen Campbell - Love Songs
DYEAR=1999
DGENRE=Country
TTITLE0=Ebb Tide
TTITLE1=Since I Fell for You
TTITLE2=What a Wonderful World
TTITLE3=It's All in the Game
TTITLE4=And I Love You So 
TTITLE5=Let It Be Me 
TTITLE6=Time in a Bottle
TTITLE7=You've Lost That Lovin' Feelin'
TTITLE8=Make It Easy on Yourself
TTITLE9=Only Love Can Break a Heart
TTITLE10=The Rest of the Road
TTITLE11=I Believe
EXTD=YEAR: 1999
EXTT0=
EXTT1=
EXTT2=
EXTT3=
EXTT4=
EXTT5=
EXTT6=
EXTT7=
EXTT8=
EXTT9=
EXTT10=
EXTT11=
PLAYORDER=
